<svg enable-background="new 0 0 512 512" height="512" viewBox="0 0 512 512" width="512" xmlns="http://www.w3.org/2000/svg"><path d="m368 464h-16c-70.692 0-128-57.307-128-128 0-70.692 57.307-128 128-128h16c70.692 0 128 57.307 128 128s-57.307 128-128 128z" fill="#d7322d"/><circle cx="352" cy="336" fill="#f04b37" r="128"/><path d="m256 304h-16c-70.692 0-128-57.307-128-128 0-70.692 57.307-128 128-128h16c70.692 0 128 57.307 128 128s-57.307 128-128 128z" fill="#d7322d"/><circle cx="240" cy="176" fill="#f04b37" r="128"/><path d="m160 464h-16c-70.692 0-128-57.307-128-128 0-70.692 57.307-128 128-128h16c70.692 0 128 57.307 128 128s-57.307 128-128 128z" fill="#d7322d"/><circle cx="144" cy="336" fill="#f04b37" r="128"/><g fill="#ff8773"><circle cx="234.667" cy="357.333" r="16"/><circle cx="341.333" cy="413.333" r="16"/><circle cx="56" cy="333.333" r="16"/><circle cx="288" cy="184" r="16"/><circle cx="214.667" cy="313.333" r="4"/><circle cx="338.667" cy="318.667" r="4"/><circle cx="221.333" cy="194.667" r="4"/><circle cx="110.667" cy="404" r="4"/><circle cx="132" cy="332" r="9.333"/><circle cx="453.333" cy="368" r="9.333"/><circle cx="398.667" cy="292" r="9.333"/><circle cx="208" cy="109.333" r="9.333"/><circle cx="164" cy="254.667" r="9.333"/></g></svg>