<svg enable-background="new 0 0 110 110" height="512" viewBox="0 0 110 110" width="512" xmlns="http://www.w3.org/2000/svg"><path d="m47.1614914 31.2337246c.6513786-.4442253-.6557007-20.023098 22.5688858-25.7449532 0 0-14.1373329 17.6192055-12.8047562 29.5539513z" fill="#338270"/><path d="m57.552597 32.1029091c-.6513824-.4442253.6557007-20.023098-22.5688858-25.7449512 0 0 14.1373329 17.6192055 12.8047523 29.5539532z" fill="#4abba4"/><path d="m51.6520805 38.5485535c.6513824-.4442253-.6556969-20.0230961 22.5688896-25.7449493 0 0-14.1373367 17.6192055-12.8047562 29.5539513z" fill="#41a38e"/><path d="m57.1197319 39.1305046c-.7198296-.321682-2.9052162-19.8220615-26.7763691-21.335022 0 0 17.0375614 14.8331413 17.8423862 26.815052z" fill="#41a38e"/><path d="m51.6520805 45.8469772c.8047409-.3596268 3.2479134-22.1602287 29.9348564-23.8516541 0 0-19.0472794 16.5828247-19.9470406 29.978096z" fill="#4abba4"/><path d="m55.1894341 46.4933891c-.7198296-.321682-2.9052162-19.8220596-26.7763691-21.3350201 0 0 17.0375614 14.8331394 17.8423862 26.8150501z" fill="#4abba4"/><path d="m53.5931206 41.011898c-22.4184017 0-24.3762188 25.0872002-24.3762188 39.991848 0 14.9043884 10.9135876 23.5074844 24.3762188 23.5074844 13.4625816 0 24.3761635-8.603096 24.3761635-23.5074844 0-14.9046478 0-39.991848-24.3761635-39.991848z" fill="#feda6f"/><g fill="#fed35b"><path d="m32.4670601 86.9696426-2.1769524 1.6680756c-.3769855-1.2534714-.6596947-2.5727463-.8387547-3.9674911z"/><path d="m32.4670601 76.6786499-3.2324409 2.4689865c.0094337-1.5360107.0565414-3.1474838.1507587-4.8249969z"/><path d="m32.4670601 66.3874359-2.58218 1.9697037c.1413841-1.1780014.3110104-2.3654404.5277443-3.5434494z"/><path d="m39.2147141 92.1245728-5.0701447 3.8639526c-1.47015-1.8190079-2.657589-3.9108887-3.4869099-6.2576981l2.7141323-2.0732498z"/><path d="m33.3717918 86.2911377-4.0711975-3.1099854c-.0565414-.7068024-.0848427-1.4324722-.0848427-2.1767807v-.471199l4.1560402-3.1665802 5.8429222 4.4575577z"/><path d="m33.3717918 75.990715-3.911005-2.9875793c.0659752-1.0365067.1508179-2.0826797.254467-3.1380539l3.656538-2.789711 5.8429222 4.4575577z"/><path d="m33.3717918 65.6994934-2.7424316-2.0921097c.3958511-2.0166473.8952961-4.0052223 1.5361252-5.9088974l1.2063065-.9141083 5.8429222 4.4575577z"/><path d="m33.3717918 55.4085045-.282711-.2167358c.932972-2.2616806 2.0826797-4.3728867 3.515152-6.2388306l2.6104813 1.9980087z"/><path d="m45.952877 97.2700653-5.3528557 4.0806885c-2.1769524-1.178009-4.1088715-2.6951523-5.7486458-4.5235901l5.2585793-4.0146561z"/><path d="m34.267086 86.9696426 5.8428688-4.4575576 5.8429222 4.4575576-5.8429222 4.4669953z"/><path d="m34.267086 76.6786499 5.8428688-4.4575577 5.8429222 4.4575577-5.8429222 4.4575577z"/><path d="m34.267086 66.3874359 5.8428688-4.4575615 5.8429222 4.4575615-5.8429222 4.4575577z"/><path d="m40.1099548 51.6388855 5.8429222 4.4575577-5.8429222 4.4575577-5.8428688-4.4575577z"/><path d="m40.1099548 50.2630081-2.8272171-2.1581421c1.5549927-1.8565102 3.4115028-3.4304848 5.6261902-4.6176949l3.0439491 2.3182793z"/><path d="m46.8481712 45.1175156-2.8460808-2.1770134c2.337204-1.0744705 5.0419006-1.7435417 8.1706924-1.8942413z"/><path d="m52.6910973 102.4155655-2.4879646 1.8944702c-3.0628166-.3299332-5.9465752-1.1405029-8.5287552-2.403183l5.1737938-3.9488449z"/><path d="m46.8481712 96.5821304-5.8334884-4.4575576 5.8334884-4.4669953 5.8429261 4.4669953z"/><path d="m41.0146828 81.8241501 5.8334884-4.4575577 5.8429261 4.4575577-5.8429261 4.4669876z"/><path d="m41.0146828 71.5329285 5.8334884-4.4575577 5.8429261 4.4575577-5.8429261 4.4577865z"/><path d="m46.8481712 56.7843781 5.8429261 4.4575576-5.8429261 4.4575577-5.8334884-4.4575577z"/><path d="m46.8481712 46.4933891 5.8429261 4.4575577-5.8429261 4.4575577-5.8334884-4.4575577z"/><path d="m53.595768 103.1035004 1.7622948 1.3478012c-.5748558.037735-1.1685753.0566025-1.7622948.0566025s-1.1780052-.0188675-1.7622948-.0566025z"/><path d="m53.595768 101.727623-5.842865-4.4575577 5.842865-4.4575577 5.8334884 4.4575577z"/><path d="m53.595768 91.4366379-5.842865-4.4669953 5.842865-4.4575576 5.8334884 4.4575576z"/><path d="m47.752903 76.6786499 5.842865-4.4575577 5.8334884 4.4575577-5.8334884 4.4575577z"/><path d="m53.595768 61.9298744 5.8334884 4.4575615-5.8334884 4.4575577-5.842865-4.4575577z"/><path d="m53.595768 51.6388855 5.8334884 4.4575577-5.8334884 4.4575577-5.842865-4.4575577z"/><path d="m47.752903 45.8054504 5.842865-4.4669914 5.8334884 4.4669914-5.8334884 4.4575577z"/><path d="m60.3339882 45.1175156-5.3339882-4.0712548c3.2418175.1226311 6.0313568.7256699 8.425045 1.7058067z"/><path d="m60.3339882 97.9580078 5.1737938 3.9488449c-2.58218 1.2626801-5.4659386 2.0732498-8.5287552 2.412384l-2.4879608-1.9036713z"/><path d="m60.3339882 96.5821304-5.8429222-4.4575576 5.8429222-4.4669953 5.8429222 4.4669953z"/><path d="m60.3339882 86.2911377-5.8429222-4.4669876 5.8429222-4.4575577 5.8429222 4.4575577z"/><path d="m66.1769104 71.5329285-5.8429222 4.4577865-5.8429222-4.4577865 5.8429222-4.4575577z"/><path d="m60.3339882 65.6994934-5.8429222-4.4575577 5.8429222-4.4575576 5.8429222 4.4575576z"/><path d="m60.3339882 46.4933891 5.8429222 4.4575577-5.8429222 4.4575577-5.8429222-4.4575577z"/><path d="m61.2387161 45.8054504 3.3266602-2.5446777c2.3371506 1.131073 4.2691269 2.6482162 5.8617935 4.4389229l-3.3549652 2.5633125z"/><path d="m67.0722046 92.8125076 5.268013 4.0146561c-1.6397705 1.8284378-3.5811234 3.3455811-5.7486496 4.5235901l-5.3528519-4.0806885z"/><path d="m67.0722046 91.4366379-5.8334885-4.4669953 5.8334885-4.4575576 5.842865 4.4575576z"/><path d="m72.9150696 76.6786499-5.842865 4.4575577-5.8334885-4.4575577 5.8334885-4.4575577z"/><path d="m67.0722046 70.8449936-5.8334885-4.4575577 5.8334885-4.4575615 5.842865 4.4575615z"/><path d="m72.9150696 56.0964432-5.842865 4.4575577-5.8334885-4.4575577 5.8334885-4.4575577z"/><path d="m67.9768829 50.9509468 3.1570892-2.4126129c1.4701462 1.8470764 2.6198578 3.9486237 3.5340195 6.2199669l-.8481903.6502037z"/></g><path d="m75.3182526 56.5582123-.603157-.4617691.3486862-.2639008c.094223.2355995.1790618.4806328.2544708.7256699z" fill="#feda6f"/><g fill="#fed35b"><path d="m73.8198013 87.6575775 2.7046967 2.0732498c-.8293152 2.3560104-2.0167618 4.4483566-3.477478 6.267128l-5.070137-3.8733826z"/><path d="m73.8198013 56.7843781 2.0544357 1.5737457c.4523392 1.6117058.8010788 3.2703476 1.0743561 4.9476242l-3.1287918 2.3937454-5.8429184-4.4575577z"/><path d="m74.7150955 66.3874359 2.4219894-1.847084c.1978683 1.3478088.3486862 2.7048187.4617691 4.0429611z"/><path d="m74.7150955 86.9696426 3.0157089-2.2994156c-.1790543 1.3947449-.4618225 2.7140198-.8387527 3.9674911z"/><path d="m73.8198013 67.0753708 3.8827057 2.9687119c.065979.9612732.1130829 1.9225464.1508179 2.8649521l-4.0335236 3.0816803-5.8429184-4.4577866z"/><path d="m74.7150955 76.6786499 3.1853409-2.4314728c.0471039 1.7058029.0565414 3.3455811.0565414 4.9098892z"/><path d="m77.9664078 80.5331726v.471199c0 .7443085-.0282974 1.4699783-.0848389 2.1767807l-4.0617676 3.1099854-5.8429184-4.4669876 5.8429184-4.4575577z"/></g></svg>